<svg width="24" height="24" viewBox="0 0 24 24" fill="none" xmlns="http://www.w3.org/2000/svg">
<path d="M23.7001 11.9869C23.7001 17.9739 19.2635 22.9235 13.5 23.7267C12.9611 23.8014 12.4097 23.8404 11.85 23.8404C11.204 23.8404 10.5696 23.789 9.95184 23.6893C4.30956 22.7806 0 17.8867 0 11.9869C0 5.44011 5.30599 0.132568 11.8509 0.132568C18.3957 0.132568 23.7017 5.44011 23.7017 11.9869H23.7001Z" fill="#383D38"/>
<path d="M13.5 9.65128V12.2336H16.6935L16.1878 15.7122H13.5V23.7267C12.9611 23.8014 12.4097 23.8405 11.85 23.8405C11.204 23.8405 10.5696 23.789 9.95184 23.6893V15.7122H7.00656V12.2336H9.95184V9.07402C9.95184 7.11379 11.5403 5.52402 13.5008 5.52402V5.52568C13.5066 5.52568 13.5116 5.52402 13.5174 5.52402H16.6943V8.53246H14.6185C14.0015 8.53246 13.5008 9.03332 13.5008 9.65045L13.5 9.65128Z" fill="white"/>
</svg>
