<svg width="24" height="24" viewBox="0 0 24 24" fill="none" xmlns="http://www.w3.org/2000/svg">
<path d="M23.7371 11.9878C23.7371 5.45958 18.4466 0.16745 11.9203 0.16745C5.39409 0.16745 0.103516 5.45958 0.103516 11.9878C0.103516 18.5159 5.39409 23.8081 11.9203 23.8081C18.4466 23.8081 23.7371 18.5159 23.7371 11.9878Z" fill="#383D38"/>
<path d="M19.3612 9.5383C19.2682 8.64042 19.0681 7.64785 18.3315 7.12624C17.7611 6.72173 17.0113 6.70678 16.3113 6.70761C14.8316 6.70761 13.351 6.7101 11.8713 6.71093C10.4481 6.7126 9.02487 6.71342 7.60164 6.71509C7.0071 6.71509 6.42917 6.6694 5.87698 6.92689C5.40285 7.14783 5.03168 7.56812 4.80831 8.03575C4.49859 8.68611 4.43382 9.42285 4.39646 10.1422C4.32754 11.452 4.33501 12.7652 4.41722 14.0742C4.47783 15.0294 4.63145 16.0851 5.36963 16.6939C6.02396 17.233 6.94731 17.2596 7.79594 17.2604C10.4896 17.2629 13.1841 17.2654 15.8786 17.2671C16.2241 17.2679 16.5844 17.2612 16.9365 17.223C17.629 17.1483 18.2892 16.9498 18.7342 16.4365C19.1835 15.919 19.2989 15.1989 19.367 14.5169C19.5331 12.8624 19.5314 11.192 19.3612 9.5383ZM10.3136 14.3068V9.66788L14.3292 11.9869L10.3136 14.3068Z" fill="white"/>
</svg>
