<svg width="25" height="24" viewBox="0 0 25 24" fill="none" xmlns="http://www.w3.org/2000/svg">
<path d="M12.28 0.133392H12.2261C5.69613 0.133392 0.402588 5.4285 0.402588 11.9603V12.0143C0.402588 18.5462 5.69613 23.8413 12.2261 23.8413H12.28C18.8099 23.8413 24.1035 18.5462 24.1035 12.0143V11.9603C24.1035 5.4285 18.8099 0.133392 12.28 0.133392Z" fill="#383D38"/>
<path d="M17.9821 8.71019V10.9487C17.591 10.9104 17.0828 10.8216 16.5206 10.6156C15.7866 10.3465 15.2402 9.97851 14.8823 9.69362V14.2179L14.8732 14.2038C14.879 14.2935 14.8823 14.3849 14.8823 14.4771C14.8823 16.7238 13.0547 18.5528 10.8078 18.5528C8.56083 18.5528 6.73322 16.7238 6.73322 14.4771C6.73322 12.2303 8.56083 10.4005 10.8078 10.4005C11.0278 10.4005 11.2437 10.4179 11.4546 10.452V12.658C11.252 12.5858 11.0345 12.5467 10.8078 12.5467C9.74409 12.5467 8.87803 13.4122 8.87803 14.4771C8.87803 15.5419 9.74409 16.4074 10.8078 16.4074C11.8715 16.4074 12.7375 15.5411 12.7375 14.4771C12.7375 14.4372 12.7367 14.3973 12.7342 14.3574V5.56552H14.9704C14.9787 5.7549 14.9861 5.94594 14.9944 6.13532C15.0094 6.50826 15.1422 6.86624 15.3739 7.15945C15.6454 7.50415 16.0465 7.9045 16.6095 8.22428C17.1368 8.52247 17.6317 8.65121 17.9821 8.71184V8.71019Z" fill="white"/>
</svg>
