<svg width="25" height="24" viewBox="0 0 25 24" fill="none" xmlns="http://www.w3.org/2000/svg">
<path d="M12.5791 0.133392H12.5251C5.99521 0.133392 0.70166 5.4285 0.70166 11.9603V12.0143C0.70166 18.5462 5.99521 23.8413 12.5251 23.8413H12.5791C19.109 23.8413 24.4026 18.5462 24.4026 12.0143V11.9603C24.4026 5.4285 19.109 0.133392 12.5791 0.133392Z" fill="#383D38"/>
<path d="M16.2194 4.9567H8.88567C6.85959 4.9567 5.21133 6.60544 5.21133 8.63211V15.3434C5.21133 17.37 6.85959 19.0188 8.88567 19.0188H16.2194C18.2455 19.0188 19.8937 17.37 19.8937 15.3434V8.63211C19.8937 6.60544 18.2455 4.9567 16.2194 4.9567ZM6.50752 8.63211C6.50752 7.32059 7.57453 6.25326 8.88567 6.25326H16.2194C17.5305 6.25326 18.5975 7.32059 18.5975 8.63211V15.3434C18.5975 16.6549 17.5305 17.7222 16.2194 17.7222H8.88567C7.57453 17.7222 6.50752 16.6549 6.50752 15.3434V8.63211Z" fill="white"/>
<path d="M12.5525 15.4057C14.4366 15.4057 15.9703 13.8724 15.9703 11.9869C15.9703 10.1014 14.4374 8.56815 12.5525 8.56815C10.6676 8.56815 9.13477 10.1014 9.13477 11.9869C9.13477 13.8724 10.6676 15.4057 12.5525 15.4057ZM12.5525 9.86555C13.7225 9.86555 14.6741 10.8174 14.6741 11.9877C14.6741 13.1581 13.7225 14.1099 12.5525 14.1099C11.3825 14.1099 10.431 13.1581 10.431 11.9877C10.431 10.8174 11.3825 9.86555 12.5525 9.86555Z" fill="white"/>
<path d="M16.2866 9.12051C16.794 9.12051 17.2075 8.7077 17.2075 8.19937C17.2075 7.69104 16.7948 7.27823 16.2866 7.27823C15.7785 7.27823 15.3658 7.69104 15.3658 8.19937C15.3658 8.7077 15.7785 9.12051 16.2866 9.12051Z" fill="white"/>
</svg>
